<svg viewBox="0 0 16 16" xmlns="http://www.w3.org/2000/svg">
    <rect x="0" y="0" width="16" height="16"/>
    <!--<path fill="white" d="
M4.6 2.75
A.75 .75 0 0 0 3.85 3.5
V12.5
A.75 .75 0 0 0 4.6 13.25
H8.5
C13.3 13.25 12.7 8.5 10.5 7.7
C12.3 7 12.6 2.75 8.5 2.75

M6.15 4.65
H7.7
Q9.4 4.65 9.4 5.75
Q9.4 6.85 7.7 6.85
H6.15

M6.15 8.75
H8
Q9.8 8.65 9.8 10.1
Q9.8 11.35 8 11.35
H6.15
"/>--><!-- B Bold -->
    <!--<path fill="none" stroke="white" stroke-width="1.5" stroke-linecap="round" d="
M6.4 3.5H11.4
M8.9 3.5L7.1 12.5
M4.6 12.5H9.7"/>--><!-- I Italic -->
    <!--<path fill="none" stroke="white" stroke-width="1.5" stroke-linecap="round" d="M4.6 3.5V9.1A3.4 3.4 0 0 0 8 12.5A3.4 3.4 0 0 0 11.4 9.1V3.5"/>
    <path fill="none" stroke="white" stroke-width="1" stroke-linecap="round" d="M4.1 15.25H11.9"/>--><!-- U Underline -->
    <!--<path fill="none" stroke="white" stroke-width="1.5" stroke-linecap="round" d="
M10.9 5.2
C10.4 4 9.4 3.5 7.9 3.5
C6.8 3.5 5.1 4 5.1 5.65
C5.1 6.9 6.1 7.6 8.1 7.95
C10.1 8.3 11.1 9 11.1 10.3
C11.1 11.5 10.1 12.5 8 12.5
C6.6 12.5 5.5 11.9 4.9 10.7"/>
    <path fill="none" stroke="white" stroke-linecap="round" d="M3 7.9H13"/>--><!-- S Strikethrough -->
    <!--<path fill="none" stroke="white" stroke-width="1.5" d="
M8 3.5
C10 3.5 11.8 5 11.8 8
C11.8 11 10 12.5 8 12.5
C6 12.5 4.2 11 4.2 8
C4.2 5 6 3.5 8 3.5
"/>--><!-- O Unused -->
    <!--<mask id="A" maskUnits="userSpaceOnUse">
        <rect x="0" y="0" width="16" height="16" fill="white"/>
        <path fill="none" stroke="black" stroke-width="1.5" stroke-linecap="round" stroke-linejoin="round" d="
M4.5 12.5
L8 3.5
L11.5 12.5
M6 9.6H10
"/>
    </mask>
    <path mask="url(#A)" fill="none" stroke="white" stroke-width="4.5" stroke-linecap="round" stroke-linejoin="round" d="
M4.5 12.5
L8 3.5
L11.5 12.5
M6 9.6H10
"/>--><!-- A Outline -->
    <!--<mask id="H">
        <rect x="0" y="0" width="16" height="16" fill="white"/>
        <path stroke="black" stroke-width="1.5" stroke-linecap="round" stroke-linejoin="round" d="
M1.5 2.5L2.5 3.5V12.5L1.5 11.5
M2.5 7.75H9.5
M8.5 2.5L9.5 3.5V12.5L8.5 11.5"/>
    </mask>
    <path mask="url(#H)" fill="white" stroke="white" stroke-width="1.5" stroke-linecap="round" stroke-linejoin="round" d="
M2.5 3.5L4.5 5.5V14.5L2.5 12.5
M2.5 7.75L4.5 9.75H11.5L9.5 7.75
M9.5 3.5L11.5 5.5V14.5L9.5 12.5"/>--><!-- H Shadow-->
    <!--<mask id="H2">
        <rect x="0" y="0" width="16" height="16" fill="white"/>
        <path stroke="black" stroke-width="3" stroke-linecap="round" stroke-linejoin="round" d="
M2.5 3.5V12.5
M2.5 7.75H9.5
M9.5 3.5V12.5"/>
    </mask>
    <path mask="url(#H2)" fill="white" stroke="white" stroke-width="1.5" stroke-linecap="round" stroke-linejoin="round" d="
M2.5 3.5L4.5 5.5V14.5L2.5 12.5
M2.5 7.75L4.5 9.75H11.5L9.5 7.75
M9.5 3.5L11.5 5.5V14.5L9.5 12.5"/>
    <path stroke="white" stroke-width="1.5" stroke-linecap="round" stroke-linejoin="round" d="
M2.5 3.5V12.5
M2.5 7.75H9.5
M9.5 3.5V12.5"/>--><!-- H v2 Shadow-->
    <!--<path fill="none" stroke="white" stroke-width="2.5" d="
M1.75 8H4.25
M6.75 8H9.25
M11.75 8H14.25
"/>--><!-- … More -->
    <!--<text x="3.15" y="13" style="font:14.3px 'SF Pro Rounded';font-weight:500;fill:#F008;">B</text>-->
    <!--<text x="1.85" y="13" style="font:14.3px 'SF Pro Rounded';font-weight:500;fill:#F008;">􀅓</text>-->
    <!--<text x="1.5" y="13" style="font:14.3px 'SF Pro Rounded';font-weight:500;fill:#F008;">􀅔</text>-->
    <!--<text x="1.8" y="13" style="font:14.3px 'SF Pro Rounded';font-weight:500;fill:#F008;">􀅕</text>-->
    <!--<text x=".1" y="13" style="font:14.3px 'SF Pro Rounded';font-weight:500;fill:#F008;">􀅖</text>-->
    <!--<text x="2.5" y="13" style="font:14.3px 'SF Pro Rounded';font-weight:500;fill:#F008;">O</text>-->
    <!--<text x="3.1" y="13" style="font:14.3px 'SF Pro Rounded';font-weight:500;fill:#F008;">A</text>-->
    <!--<text x="3.55" y="13" style="font:14.3px 'SF Pro Rounded';font-weight:500;fill:#F008;">T</text>-->
    <!--<text x="1.7" y="13" style="font:14.3px 'SF Pro Rounded';font-weight:500;fill:#F008;">H</text>-->
</svg>
